<svg width="402" height="418" viewBox="0 0 402 418" fill="none" xmlns="http://www.w3.org/2000/svg">
<path d="M264.812 92.704L208.012 55.232V49.424C207.991 48.1496 208.315 46.8932 208.948 45.7872C209.582 44.6812 210.502 43.7667 211.612 43.14C216.093 40.7663 219.663 36.9779 221.766 32.3644C223.87 27.751 224.39 22.5714 223.244 17.632C222.289 13.5069 220.196 9.73256 217.201 6.73852C214.207 3.74448 210.433 1.6509 206.308 0.696001C202.954 -0.0974217 199.463 -0.121703 196.098 0.624976C192.733 1.37165 189.58 2.86994 186.876 5.00766C184.172 7.14538 181.986 9.86713 180.483 12.9691C178.98 16.0711 178.198 19.473 178.196 22.92C178.196 24.7765 178.933 26.557 180.246 27.8698C181.559 29.1825 183.339 29.92 185.196 29.92C187.052 29.92 188.833 29.1825 190.146 27.8698C191.458 26.557 192.196 24.7765 192.196 22.92C192.198 21.5759 192.507 20.25 193.098 19.0428C193.689 17.8356 194.547 16.7788 195.607 15.9523C196.667 15.1259 197.901 14.5516 199.216 14.273C200.531 13.9943 201.892 14.0186 203.196 14.344C204.749 14.7176 206.168 15.513 207.298 16.6423C208.427 17.7717 209.222 19.1911 209.596 20.744C210.076 22.6727 209.895 24.7067 209.081 26.52C208.267 28.3333 206.868 29.8208 205.108 30.744C201.729 32.5474 198.909 35.2427 196.955 38.5369C195 41.8311 193.987 45.598 194.024 49.428V55.232L137.224 92.704C136.457 93.2101 135.796 93.8624 135.281 94.6237C134.766 95.385 134.405 96.2403 134.22 97.1409C134.036 98.0414 134.03 98.9695 134.204 99.8722C134.378 100.775 134.728 101.635 135.234 102.402C135.74 103.169 136.392 103.83 137.154 104.345C137.915 104.86 138.77 105.221 139.671 105.406C140.571 105.59 141.5 105.596 142.402 105.422C143.305 105.248 144.165 104.898 144.932 104.392L201 67.4L257.1 104.404C258.65 105.427 260.543 105.792 262.362 105.419C264.181 105.046 265.777 103.966 266.8 102.416C267.823 100.866 268.188 98.9734 267.815 97.1543C267.442 95.3352 266.362 93.7387 264.812 92.716V92.704Z" fill="#465A61"/>
<path d="M281.4 90H120.6C108.22 90 95.9946 92.7535 84.81 98.0612C73.6253 103.369 63.7611 111.098 55.932 120.688L7 180.652L59.892 224.6L95 190.6V410.9H307V190.6L342.108 224.6L395 180.652L346.052 120.692C338.225 111.103 328.364 103.375 317.182 98.0664C306 92.7581 293.778 90.0028 281.4 90Z" fill="#5E8EC3"/>
<path d="M206.332 152.332C155.668 173 139 235.668 191.668 276.332C244.336 316.996 219 410.904 95 410.904H307V190.6L342.108 224.6L395 180.652L346.052 120.692C338.225 111.103 328.364 103.375 317.182 98.0664C306 92.7581 293.778 90.0028 281.4 90H248C248 90 257 131.668 206.332 152.332V152.332Z" fill="#2B5C94"/>
<path d="M154 90C154 102.465 158.952 114.42 167.766 123.234C176.58 132.048 188.535 137 201 137C213.465 137 225.42 132.048 234.234 123.234C243.048 114.42 248 102.465 248 90H154Z" fill="#5E8EC3"/>
<path d="M278 233L255.5 245.332L233 233V188H278V233Z" fill="#162C5A"/>
<path d="M21.016 163.48L75.992 209L59.892 224.58L7 180.652L21.016 163.48Z" fill="#2B5C94"/>
<path d="M380.984 163.48L326.008 209L342.108 224.58L395 180.652L380.984 163.48Z" fill="#162C5A"/>
<path d="M400.42 176.228L386.388 159.028V159.004L351.504 116.272C343.035 105.855 332.345 97.461 320.216 91.7045C308.087 85.948 294.826 82.9741 281.4 83C279.543 83 277.763 83.7375 276.45 85.0502C275.138 86.363 274.4 88.1435 274.4 90C274.4 91.8565 275.138 93.637 276.45 94.9498C277.763 96.2625 279.543 97 281.4 97C292.746 96.9794 303.953 99.493 314.204 104.357C324.454 109.222 333.489 116.314 340.648 125.116L371.184 162.524L341.596 187C340.164 188.184 339.261 189.888 339.085 191.738C338.91 193.588 339.476 195.432 340.66 196.864C341.844 198.296 343.548 199.199 345.398 199.375C347.248 199.55 349.092 198.984 350.524 197.8L380.012 173.4L385.184 179.736L342.46 215.188L311.868 185.588C310.881 184.633 309.635 183.989 308.286 183.737C306.936 183.485 305.542 183.635 304.277 184.17C303.012 184.704 301.932 185.598 301.171 186.742C300.411 187.885 300.004 189.227 300 190.6V403.9H102V301.752C102 299.895 101.263 298.115 99.9498 296.802C98.637 295.489 96.8565 294.752 95 294.752C93.1435 294.752 91.363 295.489 90.0502 296.802C88.7375 298.115 88 299.895 88 301.752V410.908C88 412.765 88.7375 414.545 90.0502 415.858C91.363 417.171 93.1435 417.908 95 417.908H307C308.857 417.908 310.637 417.171 311.95 415.858C313.262 414.545 314 412.765 314 410.908V207.12L337.24 229.612C338.48 230.811 340.118 231.51 341.842 231.576C343.565 231.642 345.252 231.069 346.58 229.968L399.472 186.04C400.892 184.86 401.788 183.167 401.966 181.329C402.144 179.491 401.588 177.658 400.42 176.228Z" fill="#FAFAFA"/>
<path d="M95 268C93.1435 268 91.363 268.738 90.0502 270.05C88.7375 271.363 88 273.143 88 275V277.5C88 279.357 88.7375 281.137 90.0502 282.45C91.363 283.762 93.1435 284.5 95 284.5C96.8565 284.5 98.637 283.762 99.9498 282.45C101.263 281.137 102 279.357 102 277.5V275C102 273.143 101.263 271.363 99.9498 270.05C98.637 268.738 96.8565 268 95 268V268Z" fill="#FAFAFA"/>
<path d="M88 250.452C88 252.309 88.7375 254.089 90.0503 255.402C91.363 256.714 93.1435 257.452 95 257.452C96.8565 257.452 98.637 256.714 99.9498 255.402C101.263 254.089 102 252.309 102 250.452V190.6C102 189.225 101.596 187.881 100.837 186.734C100.078 185.588 98.9983 184.69 97.7325 184.154C96.4668 183.617 95.0709 183.465 93.7193 183.716C92.3676 183.968 91.12 184.612 90.132 185.568L75.632 199.604L30.832 162.516L61.364 125.108C68.5231 116.309 77.5562 109.22 87.8043 104.357C98.0523 99.4942 109.257 96.9808 120.6 97H147.496C149.135 109.297 154.946 120.66 163.956 129.187C172.967 137.715 184.631 142.892 197 143.852C198.333 143.951 199.667 144 201 144C202.857 144 204.637 143.263 205.95 141.95C207.263 140.637 208 138.857 208 137C208 135.143 207.263 133.363 205.95 132.05C204.637 130.737 202.857 130 201 130C200 130 199 129.964 198.02 129.892C189.175 129.2 180.808 125.597 174.227 119.646C167.647 113.695 163.223 105.731 161.648 97H240.332C239.71 100.658 238.575 104.211 236.96 107.552C236.145 109.22 236.026 111.144 236.629 112.9C237.232 114.656 238.508 116.101 240.176 116.916C241.844 117.731 243.768 117.85 245.524 117.247C247.28 116.644 248.725 115.368 249.54 113.7C253.154 106.323 255.022 98.2142 255 90C255 88.8458 254.715 87.7095 254.169 86.6925C253.623 85.6755 252.834 84.8095 251.872 84.172L208 55.232V49.424C207.979 48.1496 208.303 46.8932 208.936 45.7872C209.57 44.6812 210.49 43.7667 211.6 43.14C216.081 40.7663 219.651 36.9779 221.755 32.3644C223.858 27.751 224.378 22.5714 223.232 17.632C222.277 13.5069 220.184 9.73256 217.189 6.73852C214.195 3.74448 210.421 1.6509 206.296 0.696001C202.942 -0.0974217 199.451 -0.121703 196.086 0.624976C192.721 1.37165 189.568 2.86994 186.864 5.00766C184.16 7.14538 181.974 9.86713 180.471 12.9691C178.968 16.0711 178.186 19.473 178.184 22.92C178.184 24.7765 178.922 26.557 180.234 27.8698C181.547 29.1825 183.328 29.92 185.184 29.92C187.041 29.92 188.821 29.1825 190.134 27.8698C191.447 26.557 192.184 24.7765 192.184 22.92C192.187 21.5759 192.495 20.25 193.086 19.0428C193.677 17.8356 194.535 16.7788 195.595 15.9523C196.655 15.1259 197.889 14.5516 199.204 14.273C200.519 13.9943 201.88 14.0186 203.184 14.344C204.737 14.7176 206.156 15.513 207.286 16.6423C208.415 17.7717 209.21 19.1911 209.584 20.744C210.064 22.6727 209.883 24.7067 209.069 26.52C208.255 28.3333 206.856 29.8208 205.096 30.744C201.717 32.5474 198.897 35.2427 196.943 38.5369C194.989 41.8311 193.975 45.598 194.012 49.428V55.232L151.9 83H120.6C107.177 82.976 93.9186 85.9501 81.7921 91.705C69.6656 97.46 58.9774 105.851 50.508 116.264L15.648 159L15.624 159.024L15.604 159.056L1.58002 176.236C0.412112 177.666 -0.143565 179.499 0.0339909 181.337C0.211546 183.175 1.10795 184.868 2.52802 186.048L55.42 229.968C56.7487 231.067 58.4352 231.637 60.1579 231.572C61.8806 231.506 63.5189 230.808 64.76 229.612L88 207.12V250.452ZM201 67.4L224.672 83H177.328L201 67.4ZM59.536 215.188L16.812 179.704L21.984 173.368L65.508 209.4L59.536 215.188Z" fill="#FAFAFA"/>
<path d="M231.108 134.836C231.908 134.289 232.708 133.721 233.508 133.132C234.991 132.014 235.968 130.354 236.226 128.515C236.485 126.676 236.002 124.811 234.884 123.328C233.766 121.845 232.106 120.868 230.267 120.61C228.428 120.351 226.563 120.834 225.08 121.952C224.493 122.395 223.899 122.819 223.296 123.224C221.816 124.286 220.808 125.883 220.487 127.676C220.165 129.469 220.556 131.317 221.575 132.827C222.594 134.337 224.161 135.39 225.944 135.763C227.727 136.136 229.585 135.799 231.124 134.824L231.108 134.836Z" fill="#FAFAFA"/>
<path d="M229.636 239.136L252.136 251.468C253.167 252.035 254.324 252.332 255.5 252.332C256.676 252.332 257.833 252.035 258.864 251.468L281.364 239.136C282.465 238.533 283.383 237.646 284.023 236.566C284.662 235.487 285 234.255 285 233V188C285 186.143 284.262 184.363 282.95 183.05C281.637 181.737 279.857 181 278 181H233C231.143 181 229.363 181.737 228.05 183.05C226.738 184.363 226 186.143 226 188V233C226 234.255 226.338 235.487 226.977 236.566C227.617 237.646 228.535 238.533 229.636 239.136V239.136ZM240 195H271V228.856L255.5 237.348L240 228.856V195Z" fill="#FAFAFA"/>
</svg>
