<svg id="Layer_1" height="512" viewBox="0 0 128 128" width="512" xmlns="http://www.w3.org/2000/svg" data-name="Layer 1">
    <path
        d="m79.953 34.926-14.2-9.368v-1.452a1.771 1.771 0 0 1 .9-1.571 5.747 5.747 0 0 0 2.908-6.377 5.655 5.655 0 0 0 -4.234-4.234 5.713 5.713 0 0 0 -7.028 5.556 1.75 1.75 0 0 0 3.5 0 2.214 2.214 0 0 1 2.75-2.144 2.167 2.167 0 0 1 1.6 1.6 2.218 2.218 0 0 1 -1.122 2.5 5.237 5.237 0 0 0 -2.771 4.671v1.451l-14.2 9.368a1.75 1.75 0 1 0 1.927 2.922l14.017-9.248 14.025 9.251a1.75 1.75 0 0 0 1.928-2.922z"
        fill="#465a61"/>
    <path
        d="m84.1 34.25h-40.2a20.87 20.87 0 0 0 -16.167 7.672l-12.233 14.991 13.223 10.987 8.777-8.5v55.075h53v-55.075l8.777 8.5 13.223-10.987-12.237-14.99a20.87 20.87 0 0 0 -16.163-7.673z"
        fill="#00c7c7"/>
    <path
        d="m65.333 49.833c-12.666 5.167-16.833 20.834-3.666 31s6.833 33.643-24.167 33.643h53v-55.076l8.777 8.5 13.223-10.987-12.237-14.99a20.87 20.87 0 0 0 -16.163-7.673h-8.35s2.25 10.417-10.417 15.583z"
        fill="#1cacb4"/>
    <path d="m52.25 34.25a11.75 11.75 0 1 0 23.5 0z" fill="#1cacb4"/>
    <path d="m83.25 70-5.625 3.083-5.625-3.083v-11.25h11.25z" fill="#ff6319"/>
    <path d="m19.004 52.62 13.744 11.38-4.025 3.895-13.223-10.982z" fill="#ff8f00"/>
    <path d="m108.996 52.62-13.744 11.38 4.025 3.895 13.223-10.982z" fill="#ff6319"/>
    <g fill="#630000">
        <path
            d="m113.855 55.807-3.508-4.3v-.006l-8.721-10.683a22.531 22.531 0 0 0 -17.526-8.318 1.75 1.75 0 0 0 0 3.5 19.048 19.048 0 0 1 14.812 7.029l7.634 9.352-7.397 6.119a1.75 1.75 0 1 0 2.232 2.7l7.372-6.1 1.293 1.584-10.681 8.863-7.648-7.4a1.75 1.75 0 0 0 -2.967 1.253v53.325h-49.5v-25.537a1.75 1.75 0 0 0 -3.5 0v27.289a1.75 1.75 0 0 0 1.75 1.75h53a1.75 1.75 0 0 0 1.75-1.75v-50.947l5.81 5.623a1.751 1.751 0 0 0 2.335.089l13.223-10.982a1.75 1.75 0 0 0 .237-2.453z"/>
        <path d="m37.5 78.75a1.75 1.75 0 0 0 -1.75 1.75v.625a1.75 1.75 0 0 0 3.5 0v-.625a1.75 1.75 0 0 0 -1.75-1.75z"/>
        <path
            d="m35.75 74.363a1.75 1.75 0 0 0 3.5 0v-14.963a1.75 1.75 0 0 0 -2.967-1.258l-3.625 3.509-11.2-9.272 7.633-9.352a19.05 19.05 0 0 1 14.809-7.027h6.724a13.543 13.543 0 0 0 12.376 11.713q.5.037 1 .037a1.75 1.75 0 0 0 0-3.5c-.25 0-.5-.009-.745-.027a10.035 10.035 0 0 1 -9.093-8.223h19.671a9.865 9.865 0 0 1 -.843 2.638 1.75 1.75 0 0 0 3.145 1.537 13.388 13.388 0 0 0 1.365-5.925 1.747 1.747 0 0 0 -.782-1.457l-10.968-7.235v-1.452a1.771 1.771 0 0 1 .9-1.571 5.747 5.747 0 0 0 2.908-6.377 5.655 5.655 0 0 0 -4.234-4.234 5.713 5.713 0 0 0 -7.028 5.556 1.75 1.75 0 1 0 3.5 0 2.214 2.214 0 0 1 2.75-2.144 2.167 2.167 0 0 1 1.6 1.6 2.218 2.218 0 0 1 -1.122 2.5 5.237 5.237 0 0 0 -2.771 4.671v1.451l-10.528 6.942h-7.825a22.535 22.535 0 0 0 -17.523 8.316l-8.715 10.684-.006.006-.005.008-3.506 4.295a1.75 1.75 0 0 0 .237 2.453l13.223 10.98a1.754 1.754 0 0 0 2.335-.089l5.81-5.623zm28.25-45.763 5.918 3.9h-11.836zm-35.366 36.947-10.681-8.871 1.293-1.584 10.881 9.008z"/>
        <path
            d="m71.527 45.459q.3-.205.6-.426a1.75 1.75 0 0 0 -2.107-2.795q-.22.166-.446.318a1.75 1.75 0 0 0 1.957 2.9z"/>
        <path
            d="m71.159 71.534 5.625 3.083a1.746 1.746 0 0 0 1.682 0l5.625-3.083a1.749 1.749 0 0 0 .909-1.534v-11.25a1.75 1.75 0 0 0 -1.75-1.75h-11.25a1.75 1.75 0 0 0 -1.75 1.75v11.25a1.749 1.749 0 0 0 .909 1.534zm2.591-11.034h7.75v8.464l-3.875 2.123-3.875-2.123z"/>
    </g>
</svg>
